<mxfile host="app.diagrams.net" modified="2022-11-01T15:50:34.542Z" agent="5.0 (X11)" etag="-PsCMdp0CKz5eJXaS70V" version="20.5.1" type="github">
  <diagram id="8TXkehORdSKgIQscC3_d" name="Page-1">
    <mxGraphModel dx="1262" dy="594" grid="1" gridSize="10" guides="1" tooltips="1" connect="1" arrows="1" fold="1" page="1" pageScale="1" pageWidth="2339" pageHeight="3300" math="0" shadow="0">
      <root>
        <mxCell id="0" />
        <mxCell id="1" parent="0" />
        <mxCell id="VdM-WP7KE-tk-oRjZfRh-4" value="" style="edgeStyle=orthogonalEdgeStyle;rounded=0;orthogonalLoop=1;jettySize=auto;html=1;fontSize=14;" edge="1" parent="1" source="VdM-WP7KE-tk-oRjZfRh-1" target="VdM-WP7KE-tk-oRjZfRh-3">
          <mxGeometry relative="1" as="geometry" />
        </mxCell>
        <mxCell id="VdM-WP7KE-tk-oRjZfRh-1" value="&lt;div&gt;width&lt;/div&gt;&lt;div&gt;length&lt;br&gt;&lt;/div&gt;" style="shape=parallelogram;perimeter=parallelogramPerimeter;whiteSpace=wrap;html=1;fixedSize=1;fontFamily=Inconsolata;fontSource=https%3A%2F%2Ffonts.googleapis.com%2Fcss%3Ffamily%3DInconsolata;fontSize=14;" vertex="1" parent="1">
          <mxGeometry x="361" y="41" width="120" height="60" as="geometry" />
        </mxCell>
        <mxCell id="VdM-WP7KE-tk-oRjZfRh-11" style="edgeStyle=orthogonalEdgeStyle;rounded=0;orthogonalLoop=1;jettySize=auto;html=1;exitX=0;exitY=0.5;exitDx=0;exitDy=0;" edge="1" parent="1" source="VdM-WP7KE-tk-oRjZfRh-3" target="VdM-WP7KE-tk-oRjZfRh-10">
          <mxGeometry relative="1" as="geometry" />
        </mxCell>
        <mxCell id="VdM-WP7KE-tk-oRjZfRh-13" style="edgeStyle=orthogonalEdgeStyle;rounded=0;orthogonalLoop=1;jettySize=auto;html=1;exitX=0.5;exitY=1;exitDx=0;exitDy=0;entryX=0;entryY=0.5;entryDx=0;entryDy=0;" edge="1" parent="1" source="VdM-WP7KE-tk-oRjZfRh-3" target="VdM-WP7KE-tk-oRjZfRh-12">
          <mxGeometry relative="1" as="geometry" />
        </mxCell>
        <mxCell id="VdM-WP7KE-tk-oRjZfRh-3" value="&lt;div&gt;for i in width&lt;/div&gt;" style="rhombus;whiteSpace=wrap;html=1;fontSize=14;fontFamily=Inconsolata;fontSource=https%3A%2F%2Ffonts.googleapis.com%2Fcss%3Ffamily%3DInconsolata;" vertex="1" parent="1">
          <mxGeometry x="336.5" y="130" width="169" height="80" as="geometry" />
        </mxCell>
        <mxCell id="VdM-WP7KE-tk-oRjZfRh-18" style="edgeStyle=orthogonalEdgeStyle;rounded=0;orthogonalLoop=1;jettySize=auto;html=1;exitX=0.5;exitY=1;exitDx=0;exitDy=0;fontFamily=Inconsolata;fontSource=https%3A%2F%2Ffonts.googleapis.com%2Fcss%3Ffamily%3DInconsolata;fontSize=16;" edge="1" parent="1" source="VdM-WP7KE-tk-oRjZfRh-10" target="VdM-WP7KE-tk-oRjZfRh-17">
          <mxGeometry relative="1" as="geometry" />
        </mxCell>
        <mxCell id="VdM-WP7KE-tk-oRjZfRh-10" value="for i in width" style="rhombus;whiteSpace=wrap;html=1;fontSize=14;fontFamily=Inconsolata;fontSource=https%3A%2F%2Ffonts.googleapis.com%2Fcss%3Ffamily%3DInconsolata;" vertex="1" parent="1">
          <mxGeometry x="336.5" y="350" width="169" height="80" as="geometry" />
        </mxCell>
        <mxCell id="VdM-WP7KE-tk-oRjZfRh-14" style="edgeStyle=orthogonalEdgeStyle;rounded=0;orthogonalLoop=1;jettySize=auto;html=1;exitX=0.5;exitY=0;exitDx=0;exitDy=0;entryX=1;entryY=0.5;entryDx=0;entryDy=0;" edge="1" parent="1" source="VdM-WP7KE-tk-oRjZfRh-12" target="VdM-WP7KE-tk-oRjZfRh-3">
          <mxGeometry relative="1" as="geometry" />
        </mxCell>
        <mxCell id="VdM-WP7KE-tk-oRjZfRh-12" value="&lt;font style=&quot;font-size: 16px;&quot; data-font-src=&quot;https://fonts.googleapis.com/css?family=Inconsolata&quot; face=&quot;Inconsolata&quot;&gt;full += &quot;#&quot;&lt;/font&gt;" style="rounded=0;whiteSpace=wrap;html=1;" vertex="1" parent="1">
          <mxGeometry x="480" y="240" width="120" height="60" as="geometry" />
        </mxCell>
        <mxCell id="VdM-WP7KE-tk-oRjZfRh-22" style="edgeStyle=orthogonalEdgeStyle;rounded=0;orthogonalLoop=1;jettySize=auto;html=1;exitX=0;exitY=0.5;exitDx=0;exitDy=0;fontFamily=Inconsolata;fontSource=https%3A%2F%2Ffonts.googleapis.com%2Fcss%3Ffamily%3DInconsolata;fontSize=14;" edge="1" parent="1" source="VdM-WP7KE-tk-oRjZfRh-17" target="VdM-WP7KE-tk-oRjZfRh-23">
          <mxGeometry relative="1" as="geometry">
            <mxPoint x="400" y="535" as="targetPoint" />
          </mxGeometry>
        </mxCell>
        <mxCell id="VdM-WP7KE-tk-oRjZfRh-27" style="edgeStyle=orthogonalEdgeStyle;rounded=0;orthogonalLoop=1;jettySize=auto;html=1;exitX=1;exitY=0.5;exitDx=0;exitDy=0;entryX=0.5;entryY=0;entryDx=0;entryDy=0;fontFamily=Inconsolata;fontSource=https%3A%2F%2Ffonts.googleapis.com%2Fcss%3Ffamily%3DInconsolata;fontSize=14;" edge="1" parent="1" source="VdM-WP7KE-tk-oRjZfRh-17" target="VdM-WP7KE-tk-oRjZfRh-26">
          <mxGeometry relative="1" as="geometry" />
        </mxCell>
        <mxCell id="VdM-WP7KE-tk-oRjZfRh-17" value="&lt;div style=&quot;font-size: 14px;&quot;&gt;if i = 0 or i = x - 1&lt;/div&gt;" style="rhombus;whiteSpace=wrap;html=1;fontFamily=Inconsolata;fontSource=https%3A%2F%2Ffonts.googleapis.com%2Fcss%3Ffamily%3DInconsolata;fontSize=14;" vertex="1" parent="1">
          <mxGeometry x="570" y="470" width="220" height="70" as="geometry" />
        </mxCell>
        <mxCell id="VdM-WP7KE-tk-oRjZfRh-47" style="edgeStyle=orthogonalEdgeStyle;rounded=0;orthogonalLoop=1;jettySize=auto;html=1;fontFamily=Inconsolata;fontSource=https%3A%2F%2Ffonts.googleapis.com%2Fcss%3Ffamily%3DInconsolata;fontSize=14;endArrow=none;endFill=0;" edge="1" parent="1" source="VdM-WP7KE-tk-oRjZfRh-23">
          <mxGeometry relative="1" as="geometry">
            <mxPoint x="830" y="620" as="targetPoint" />
            <Array as="points">
              <mxPoint x="530" y="620" />
            </Array>
          </mxGeometry>
        </mxCell>
        <mxCell id="VdM-WP7KE-tk-oRjZfRh-23" value="&lt;div&gt;part += &quot;.&quot;&lt;/div&gt;" style="rounded=0;whiteSpace=wrap;html=1;fontFamily=Inconsolata;fontSource=https%3A%2F%2Ffonts.googleapis.com%2Fcss%3Ffamily%3DInconsolata;fontSize=14;" vertex="1" parent="1">
          <mxGeometry x="470" y="540" width="120" height="60" as="geometry" />
        </mxCell>
        <mxCell id="VdM-WP7KE-tk-oRjZfRh-24" value="y" style="text;html=1;align=center;verticalAlign=middle;resizable=0;points=[];autosize=1;strokeColor=none;fillColor=none;fontSize=14;fontFamily=Inconsolata;" vertex="1" parent="1">
          <mxGeometry x="790" y="480" width="30" height="30" as="geometry" />
        </mxCell>
        <mxCell id="VdM-WP7KE-tk-oRjZfRh-25" value="n" style="text;html=1;align=center;verticalAlign=middle;resizable=0;points=[];autosize=1;strokeColor=none;fillColor=none;fontSize=14;fontFamily=Inconsolata;" vertex="1" parent="1">
          <mxGeometry x="540" y="480" width="30" height="30" as="geometry" />
        </mxCell>
        <mxCell id="VdM-WP7KE-tk-oRjZfRh-42" style="edgeStyle=orthogonalEdgeStyle;rounded=0;orthogonalLoop=1;jettySize=auto;html=1;exitX=0.5;exitY=1;exitDx=0;exitDy=0;fontFamily=Inconsolata;fontSource=https%3A%2F%2Ffonts.googleapis.com%2Fcss%3Ffamily%3DInconsolata;fontSize=14;entryX=1;entryY=0.5;entryDx=0;entryDy=0;" edge="1" parent="1" source="VdM-WP7KE-tk-oRjZfRh-26" target="VdM-WP7KE-tk-oRjZfRh-10">
          <mxGeometry relative="1" as="geometry">
            <mxPoint x="920" y="380" as="targetPoint" />
            <Array as="points">
              <mxPoint x="830" y="620" />
              <mxPoint x="910" y="620" />
              <mxPoint x="910" y="390" />
            </Array>
          </mxGeometry>
        </mxCell>
        <mxCell id="VdM-WP7KE-tk-oRjZfRh-26" value="&lt;div&gt;part += &quot;#&quot;&lt;/div&gt;" style="rounded=0;whiteSpace=wrap;html=1;fontFamily=Inconsolata;fontSource=https%3A%2F%2Ffonts.googleapis.com%2Fcss%3Ffamily%3DInconsolata;fontSize=14;" vertex="1" parent="1">
          <mxGeometry x="770" y="540" width="120" height="60" as="geometry" />
        </mxCell>
      </root>
    </mxGraphModel>
  </diagram>
</mxfile>
